<svg xmlns="http://www.w3.org/2000/svg" xmlns:xlink="http://www.w3.org/1999/xlink" data-v-5a1f2754="" version="1.0" width="100%" height="100%" viewBox="-1 0 250 60" preserveAspectRatio="xMidYMid meet" color-interpolation-filters="sRGB" style="margin: auto;">  <g fill="#FFF" transform="translate(10,1.0488052368164062)"><g class="iconsvg-imagesvg" transform="translate(0,1.0488052368164062)"> <svg x="0" y="0" width="60" height="44.00238953149832" filtersec="colorsb2671608762" class="image-svg-svg"><svg xmlns="http://www.w3.org/2000/svg" viewBox="-0.0005991163197904825 -0.0018551417160779238 74.55284118652344 54.675052642822266"><title>资源 6</title><g id="图层_2" data-name="图层 2"><g id="Layer_1" data-name="Layer 1"><path d="M43.53,24.71l.32-.59a12,12,0,0,1,2.51-3.57,5.26,5.26,0,0,1,2.86-1.12,5.46,5.46,0,0,1,3.06.68,5.64,5.64,0,0,1,2.21,2.23,5.22,5.22,0,0,1,.57,3,5.94,5.94,0,0,1-.21,1q-.1.3-.24.6l-8.23,14.9a24.75,24.75,0,0,1-2.76,4,24.83,24.83,0,0,1-12.15,7.83,24.14,24.14,0,0,1-7.28,1,25.43,25.43,0,0,1-7.35-1.22,26.16,26.16,0,0,1-4.16-1.75A26.55,26.55,0,0,1,9,49.11a25.27,25.27,0,0,1-4.94-5.58A24.61,24.61,0,0,1,1,36.85,25.28,25.28,0,0,1,.09,32,24.72,24.72,0,0,1,1.16,22.4a25.35,25.35,0,0,1,1.93-4.47L11.34,3a4.82,4.82,0,0,1,.38-.51,4.51,4.51,0,0,1,.74-.71A5.17,5.17,0,0,1,15.32.68a5.49,5.49,0,0,1,3.06.69,5.4,5.4,0,0,1,2.2,2.22,5.22,5.22,0,0,1,.58,3,12.08,12.08,0,0,1-1.69,4l-.33.59L12.46,23.29a13.83,13.83,0,0,0-1.66,5.2A13.82,13.82,0,0,0,11.27,34,13.82,13.82,0,0,0,13,37.72a14.7,14.7,0,0,0,2.79,3.15,15.85,15.85,0,0,0,2.08,1.46,15.13,15.13,0,0,0,2.35,1,14,14,0,0,0,8.25.16,14.52,14.52,0,0,0,2.57-1A13.18,13.18,0,0,0,33.34,41a14.13,14.13,0,0,0,2-1.9,14.33,14.33,0,0,0,1.55-2.26l6.67-12.08Z" fill="#FFF"/><path d="M31,30l-.32.59a11.91,11.91,0,0,1-2.51,3.57,5.15,5.15,0,0,1-2.86,1.12,5.54,5.54,0,0,1-5.26-2.91,5.11,5.11,0,0,1-.58-3,5,5,0,0,1,.22-1,4.92,4.92,0,0,1,.23-.6l8.23-14.9a24.73,24.73,0,0,1,6.25-7.4A25.22,25.22,0,0,1,43.08,1a24.86,24.86,0,0,1,7.29-1,25.78,25.78,0,0,1,7.34,1.23A26.16,26.16,0,0,1,61.87,3a25.81,25.81,0,0,1,8.64,8.16,24.79,24.79,0,0,1,3.06,6.69,25.18,25.18,0,0,1,.89,4.81,24.8,24.8,0,0,1-1.07,9.64,25.35,25.35,0,0,1-1.93,4.47L63.21,51.64a3.85,3.85,0,0,1-.38.52,5.44,5.44,0,0,1-.73.71A5.21,5.21,0,0,1,59.23,54,5.54,5.54,0,0,1,54,51.08a5.19,5.19,0,0,1-.58-3,12,12,0,0,1,1.7-4l.32-.59L62.1,31.39a14.05,14.05,0,0,0,1.65-5.2,14.88,14.88,0,0,0,0-2.75A14.28,14.28,0,0,0,61.56,17a14.65,14.65,0,0,0-2.79-3.14,15,15,0,0,0-2.08-1.46,14.26,14.26,0,0,0-2.35-1,14.48,14.48,0,0,0-4.14-.69,14.08,14.08,0,0,0-4.11.54,14.85,14.85,0,0,0-2.56,1,13.65,13.65,0,0,0-4.28,3.4,13.93,13.93,0,0,0-1.56,2.26L31,30Z" fill="#FFF"/></g></g></svg></svg> <!----></g> <g transform="translate(67,0)"><g fill-rule="" class="tp-name iconsvg-namesvg"><g><path d="M21.67-29.97L21.67-29.97L21.67-10.77Q21.67-5.76 19.05-2.57Q16.44 0.62 11.34 0.62L11.34 0.62Q5.84 0.62 2.64-2.94L2.64-2.94Q0.97-5.23 3.12-6.81L3.12-6.81Q5.54-8.61 7.87-5.89L7.87-5.89Q9.05-5.14 10.55-5.14L10.55-5.14Q12.83-5.14 13.91-6.55Q14.99-7.95 14.99-11.29L14.99-11.29L14.99-29.97Q14.99-33.31 18.33-33.31Q21.67-33.31 21.67-29.97ZM35.64-21.93L35.64-21.93L35.64-3.30Q35.64 0 32.39 0L32.39 0Q29.09 0 29.09-3.30L29.09-3.30L29.09-21.93Q29.09-25.18 32.39-25.18L32.39-25.18Q35.64-25.18 35.64-21.93ZM28.48-32.87L28.48-32.87Q28.48-34.50 29.60-35.46Q30.72-36.43 32.43-36.43Q34.15-36.43 35.24-35.44Q36.34-34.45 36.34-32.87L36.34-32.87Q36.34-31.33 35.22-30.30Q34.10-29.27 32.43-29.27L32.43-29.27Q30.72-29.27 29.60-30.30Q28.48-31.33 28.48-32.87ZM53.31-25.84L53.31-25.84Q58.62-25.84 62.01-22.06Q65.39-18.28 65.39-12.57L65.39-12.57Q65.39-6.59 61.83-2.99Q58.27 0.62 53.31 0.62Q48.34 0.62 44.76-2.99Q41.18-6.59 41.18-12.57L41.18-12.57Q41.18-18.59 44.76-22.21Q48.34-25.84 53.31-25.84ZM53.31-20.43L53.31-20.43Q50.58-20.43 49.26-18.22Q47.94-16.00 47.94-12.57L47.94-12.57Q47.94-8.96 49.35-6.88Q50.76-4.79 53.31-4.79Q55.85-4.79 57.24-6.88Q58.62-8.96 58.62-12.57L58.62-12.57Q58.62-16.22 57.24-18.33Q55.85-20.43 53.31-20.43ZM73.78-25.18L73.78-25.18Q76.33-25.18 76.77-22.59L76.77-22.59L76.95-22.59Q80.77-25.84 84.38-25.84L84.38-25.84Q88.99-25.84 91.63-22.35Q94.26-18.85 94.26-13.01L94.26-13.01Q94.26-6.77 91.12-3.08Q87.98 0.62 83.58 0.62L83.58 0.62Q80.29 0.62 77.30-2.11L77.30-2.11L77.48 2.02L77.48 6.37Q77.48 9.67 74.22 9.67L74.22 9.67Q70.93 9.67 70.93 6.37L70.93 6.37L70.93-22.50Q70.93-25.18 73.78-25.18ZM77.48-17.75L77.48-17.75L77.48-6.72Q79.67-4.83 82.09-4.83Q84.51-4.83 86.00-6.90Q87.50-8.96 87.50-12.92L87.50-12.92Q87.50-20.39 82.49-20.39L82.49-20.39Q80.11-20.39 77.48-17.75ZM118.92-10.77L118.92-10.77L104.72-10.77Q105.12-7.73 106.98-6.09Q108.85-4.44 111.71-4.44L111.71-4.44Q113.38-4.44 115.22-5.14L115.22-5.14Q117.42-6.24 118.56-4.09L118.56-4.09Q119.58-2.11 117.82-1.10L117.82-1.10Q114.48 0.62 110.83 0.62L110.83 0.62Q105.42 0.62 101.87-2.94Q98.31-6.50 98.31-12.57L98.31-12.57Q98.31-18.46 101.80-22.15Q105.29-25.84 110.04-25.84L110.04-25.84Q115.09-25.84 117.84-22.50Q120.59-19.16 120.59-13.75L120.59-13.75Q120.59-12.92 120.50-11.87L120.50-11.87Q120.41-11.43 119.95-11.10Q119.49-10.77 118.92-10.77ZM104.63-15.12L104.63-15.12L114.92-15.12Q114.92-17.75 113.71-19.23Q112.50-20.70 110.13-20.70L110.13-20.70Q108.06-20.70 106.52-19.25Q104.99-17.80 104.63-15.12ZM145.02-10.77L145.02-10.77L130.83-10.77Q131.22-7.73 133.09-6.09Q134.96-4.44 137.81-4.44L137.81-4.44Q139.48-4.44 141.33-5.14L141.33-5.14Q143.53-6.24 144.67-4.09L144.67-4.09Q145.68-2.11 143.92-1.10L143.92-1.10Q140.58 0.62 136.93 0.62L136.93 0.62Q131.53 0.62 127.97-2.94Q124.41-6.50 124.41-12.57L124.41-12.57Q124.41-18.46 127.90-22.15Q131.40-25.84 136.14-25.84L136.14-25.84Q141.20-25.84 143.94-22.50Q146.69-19.16 146.69-13.75L146.69-13.75Q146.69-12.92 146.60-11.87L146.60-11.87Q146.51-11.43 146.05-11.10Q145.59-10.77 145.02-10.77ZM130.74-15.12L130.74-15.12L141.02-15.12Q141.02-17.75 139.81-19.23Q138.60-20.70 136.23-20.70L136.23-20.70Q134.17-20.70 132.63-19.25Q131.09-17.80 130.74-15.12ZM158.64-32.61L158.64-32.61L158.64-6.77Q158.64-5.76 159.06-5.27Q159.48-4.79 160.00-4.79L160.00-4.79L160.09-4.79Q160.44-4.83 160.75-4.39Q161.06-3.96 161.15-3.52L161.15-3.52Q161.37-2.20 161.10-0.94Q160.84 0.31 159.92 0.53L159.92 0.53Q158.95 0.62 158.29 0.62L158.29 0.62Q152.09 0.62 152.09-7.08L152.09-7.08L152.09-32.61Q152.09-35.90 155.39-35.90L155.39-35.90Q158.64-35.90 158.64-32.61Z" transform="translate(-1.9073275862069, 36.4306640625)"/></g> <!----> <!----> <!----> <!----> <!----> <!----> <g fill="#1D3557" transform="translate(162.33885192871094,0)"/></g> <!----></g></g></svg>