<svg xmlns="http://www.w3.org/2000/svg" viewBox="-0.001 -0.002 74.553 54.675"><title>资源 6</title><g data-name="图层 2"><g data-name="Layer 1"><path d="M43.53 24.71l.32-.59a12 12 0 0 1 2.51-3.57 5.26 5.26 0 0 1 2.86-1.12 5.46 5.46 0 0 1 3.06.68 5.64 5.64 0 0 1 2.21 2.23 5.22 5.22 0 0 1 .57 3 5.94 5.94 0 0 1-.21 1q-.1.3-.24.6l-8.23 14.9a24.75 24.75 0 0 1-2.76 4 24.83 24.83 0 0 1-12.15 7.83 24.14 24.14 0 0 1-7.28 1 25.43 25.43 0 0 1-7.35-1.22 26.16 26.16 0 0 1-4.16-1.75A26.55 26.55 0 0 1 9 49.11a25.27 25.27 0 0 1-4.94-5.58A24.61 24.61 0 0 1 1 36.85 25.28 25.28 0 0 1 .09 32a24.72 24.72 0 0 1 1.07-9.6 25.35 25.35 0 0 1 1.93-4.47L11.34 3a4.82 4.82 0 0 1 .38-.51 4.51 4.51 0 0 1 .74-.71 5.17 5.17 0 0 1 2.86-1.1 5.49 5.49 0 0 1 3.06.69 5.4 5.4 0 0 1 2.2 2.22 5.22 5.22 0 0 1 .58 3 12.08 12.08 0 0 1-1.69 4l-.33.59-6.68 12.11a13.83 13.83 0 0 0-1.66 5.2 13.82 13.82 0 0 0 .47 5.51A13.82 13.82 0 0 0 13 37.72a14.7 14.7 0 0 0 2.79 3.15 15.85 15.85 0 0 0 2.08 1.46 15.13 15.13 0 0 0 2.35 1 14 14 0 0 0 8.25.16 14.52 14.52 0 0 0 2.57-1 13.18 13.18 0 0 0 2.3-1.49 14.13 14.13 0 0 0 2-1.9 14.33 14.33 0 0 0 1.55-2.26l6.67-12.08z" fill="#08cfe8"/><path d="M31 30l-.32.59a11.91 11.91 0 0 1-2.51 3.57 5.15 5.15 0 0 1-2.86 1.12 5.54 5.54 0 0 1-5.26-2.91 5.11 5.11 0 0 1-.58-3 5 5 0 0 1 .22-1 4.92 4.92 0 0 1 .23-.6l8.23-14.9a24.73 24.73 0 0 1 6.25-7.4A25.22 25.22 0 0 1 43.08 1a24.86 24.86 0 0 1 7.29-1 25.78 25.78 0 0 1 7.34 1.23A26.16 26.16 0 0 1 61.87 3a25.81 25.81 0 0 1 8.64 8.16 24.79 24.79 0 0 1 3.06 6.69 25.18 25.18 0 0 1 .89 4.81 24.8 24.8 0 0 1-1.07 9.64 25.35 25.35 0 0 1-1.93 4.47l-8.25 14.87a3.85 3.85 0 0 1-.38.52 5.44 5.44 0 0 1-.73.71A5.21 5.21 0 0 1 59.23 54 5.54 5.54 0 0 1 54 51.08a5.19 5.19 0 0 1-.58-3 12 12 0 0 1 1.7-4l.32-.59 6.66-12.1a14.05 14.05 0 0 0 1.65-5.2 14.88 14.88 0 0 0 0-2.75A14.28 14.28 0 0 0 61.56 17a14.65 14.65 0 0 0-2.79-3.14 15 15 0 0 0-2.08-1.46 14.26 14.26 0 0 0-2.35-1 14.48 14.48 0 0 0-4.14-.69 14.08 14.08 0 0 0-4.11.54 14.85 14.85 0 0 0-2.56 1 13.65 13.65 0 0 0-4.28 3.4 13.93 13.93 0 0 0-1.56 2.26L31 30z" fill="#006dca"/></g></g></svg>